<svg id="Capa_1" data-name="Capa 1" xmlns="http://www.w3.org/2000/svg" viewBox="0 0 512 352"><title>email</title><polygon points="339.39 178.62 512 287.74 512 64.9 339.39 178.62"/><polygon points="0 64.9 0 287.74 172.61 178.62 0 64.9"/><path d="M480,80H32C16,80,3.36,91.9,1,107.23l255,168,255-168C508.64,91.9,496,80,480,80Z" transform="translate(0 -80)"/><path d="M310.08,278,264.8,307.78a16.09,16.09,0,0,1-17.6,0l-45.28-29.86L1,405c2.47,15.2,15.08,27,31,27H480c15.9,0,28.51-11.81,31-27Z" transform="translate(0 -80)"/></svg>